Coordinates
version=1
nRows=16
nColumns=40
inDegrees=yes

Units are S.I. units (second, meters, Newtons, ...)
If the header above contains a line with 'inDegrees', this indicates whether rotational values are in degrees (yes) or radians (no).

endheader
time	pelvis_tilt	pelvis_list	pelvis_rotation	pelvis_tx	pelvis_ty	pelvis_tz	hip_flexion_r	hip_adduction_r	hip_rotation_r	knee_angle_r	knee_angle_r_beta	ankle_angle_r	subtalar_angle_r	mtp_angle_r	hip_flexion_l	hip_adduction_l	hip_rotation_l	knee_angle_l	knee_angle_l_beta	ankle_angle_l	subtalar_angle_l	mtp_angle_l	lumbar_extension	lumbar_bending	lumbar_rotation	arm_flex_r	arm_add_r	arm_rot_r	elbow_flex_r	pro_sup_r	wrist_flex_r	wrist_dev_r	arm_flex_l	arm_add_l	arm_rot_l	elbow_flex_l	pro_sup_l	wrist_flex_l	wrist_dev_l
      0.00000000	      6.41431620	      6.96347746	      9.64259414	      0.05387613	      1.32180378	     -0.00586046	     33.36452500	    -19.93022639	    -18.54127546	     43.28516954	      0.75546873	    -14.83740709	    -10.22145874	      0.00000000	     45.20507807	     -6.68232168	     -4.21603376	     98.33141321	      1.71620692	    -17.70659534	     -2.70581388	      0.00000000	    -62.27604412	      0.50820450	     -8.87060568	     52.38501987	     12.59929014	    -57.02333700	     43.48128115	     78.53426032	      0.00000000	      0.00000000	     65.09307824	     17.12165411	    -66.12341548	     47.59184059	     66.96196953	      0.00000000	      0.00000000
      0.01700000	      5.99199328	      8.10637985	      9.78484245	      0.05303476	      1.32119457	     -0.00510816	     30.20214107	    -20.03832239	    -17.99733706	     39.98199178	      0.69781740	    -16.96810015	    -11.10751461	      0.00000000	     48.68661801	     -5.32415923	     -4.03617452	    101.43300207	      1.77033986	    -15.03913337	     -2.94964164	      0.00000000	    -61.91508339	     -0.45052255	     -9.81769630	     51.93471604	     11.88050457	    -56.62453641	     43.21547786	     78.47355484	      0.00000000	      0.00000000	     64.79819976	     17.63120479	    -65.48736068	     47.78481712	     66.98123614	      0.00000000	      0.00000000
      0.03300000	      5.50381264	      9.17184056	     10.12192676	      0.05234863	      1.32022054	     -0.00450757	     26.93835858	    -20.14987061	    -17.73884371	     36.41832823	      0.63561974	    -19.49465752	    -12.18051413	      0.00000000	     52.33891497	     -4.00877735	     -3.83196891	    104.42374930	      1.82253824	    -12.65517742	     -3.11699113	      0.00000000	    -61.46066559	     -1.24286290	    -10.76446075	     51.40590503	     11.14565808	    -56.11425008	     42.95002295	     78.35391499	      0.00000000	      0.00000000	     64.45148061	     18.15178908	    -64.86057062	     47.96360711	     66.98753024	      0.00000000	      0.00000000
      0.05000000	      5.11888956	      9.90230980	     10.45301918	      0.05200307	      1.31940169	     -0.00414544	     24.09991149	    -20.15298864	    -17.86937964	     34.05178803	      0.59431582	    -21.67017706	    -13.41579308	      0.00000000	     55.80222680	     -2.99530371	     -3.71696208	    106.24152847	      1.85426447	    -10.61670148	     -3.25594362	      0.00000000	    -61.18818333	     -1.73868970	    -11.48362305	     51.03975094	     10.47949521	    -55.54603985	     42.66243182	     78.16060681	      0.00000000	      0.00000000	     64.21283810	     18.59250326	    -64.34755245	     48.13918019	     66.99079238	      0.00000000	      0.00000000
      0.06700000	      4.58572659	     10.57259955	     10.31397704	      0.05231218	      1.31854408	     -0.00325099	     22.32508811	    -20.23686867	    -17.51744913	     33.50980906	      0.58485650	    -22.47491763	    -13.51168228	      0.00000000	     59.24532953	     -2.64571566	     -4.41892020	    106.40057278	      1.85704032	     -9.11095869	     -3.48752729	      0.00000000	    -60.97810187	     -2.51758210	    -11.86880702	     50.89019474	     10.02382502	    -55.29085380	     42.43863191	     76.95954612	      0.00000000	      0.00000000	     64.23444592	     19.00510880	    -63.96535125	     48.08965474	     66.45101702	      0.00000000	      0.00000000
      0.08300000	      4.23092249	     11.00598076	     10.30491717	      0.05271057	      1.31806201	     -0.00271522	     21.06185480	    -20.40810235	    -17.63119948	     34.50133937	      0.60216197	    -23.66752558	    -14.27109687	      0.00000000	     62.29742642	     -2.32281369	     -5.18570433	    105.32065968	      1.83819228	     -8.06828497	     -4.55420597	      0.00000000	    -61.02362789	     -2.88546828	    -12.30760107	     51.08937831	      9.75320343	    -55.17803198	     42.05648060	     76.77399464	      0.00000000	      0.00000000	     64.58097847	     19.27508871	    -64.24451868	     48.05503835	     66.36568567	      0.00000000	      0.00000000
      0.10000000	      4.07620342	     11.14216412	     10.05331562	      0.05325406	      1.31792176	     -0.00223907	     20.47584693	    -20.36642613	    -17.19077980	     36.94817114	      0.64486724	    -23.17637989	    -14.89538774	      0.00000000	     64.20971071	     -2.26943146	     -5.83862097	    103.08946593	      1.79925060	     -7.42908318	     -5.54857845	      0.00000000	    -61.16767280	     -3.17745198	    -12.32196159	     51.29222967	      9.54373902	    -55.07070481	     41.84920604	     76.65079328	      0.00000000	      0.00000000	     64.86072896	     19.52595723	    -64.46268122	     48.06249420	     66.37812936	      0.00000000	      0.00000000
      0.11700000	      4.21349304	     10.86100911	      9.59329568	      0.05373207	      1.31822299	     -0.00202435	     20.62080228	    -20.06467906	    -16.19466826	     41.05509628	      0.71654660	    -21.57857172	    -15.15744717	      0.00000000	     64.65258671	     -2.40652668	     -6.03811284	     99.78615564	      1.74159696	     -6.12986855	     -5.75478703	      0.00000000	    -61.41282579	     -3.25637551	    -11.93841441	     51.57239438	      9.49691394	    -54.95325321	     41.74623591	     76.54600187	      0.00000000	      0.00000000	     65.09707192	     19.62810929	    -64.78022272	     48.07151255	     66.39871081	      0.00000000	      0.00000000
      0.13300000	      4.47692817	     10.29702633	      8.94993271	      0.05420549	      1.31865976	     -0.00181998	     21.54622367	    -19.59406365	    -14.84765462	     46.60291110	      0.81337424	    -19.33785315	    -15.18644086	      0.00000000	     64.01234201	     -2.74066735	     -6.01982513	     95.46448573	      1.66616959	     -4.69954227	     -5.41720381	      0.00000000	    -61.67372330	     -3.26209278	    -11.27890449	     51.90527908	      9.58489773	    -54.87292368	     41.67811419	     76.45857543	      0.00000000	      0.00000000	     65.36023570	     19.61370322	    -65.28447265	     48.08240346	     66.42149999	      0.00000000	      0.00000000
      0.15000000	      4.82319370	      9.38870867	      8.15170037	      0.05454630	      1.31928903	     -0.00180375	     23.12880243	    -18.87378653	    -13.50796273	     52.75439523	      0.92073789	    -17.50674021	    -15.04106994	      0.00000000	     62.37532202	     -3.37056817	     -5.89897023	     90.40608962	      1.57788393	     -3.82926098	     -5.17675766	      0.00000000	    -61.92090869	     -3.13090883	    -10.24238044	     52.27353515	      9.78261082	    -54.87819353	     41.73155890	     76.36103304	      0.00000000	      0.00000000	     65.57250741	     19.51319898	    -65.74318258	     48.10931148	     66.45882564	      0.00000000	      0.00000000
      0.16700000	      5.34228662	      7.94943852	      7.29873780	      0.05482252	      1.32012168	     -0.00209367	     25.28224026	    -17.71901357	    -12.48973870	     59.57765025	      1.03982616	    -16.25528317	    -15.03063857	      0.00000000	     59.57468616	     -4.35585590	     -5.58302355	     84.38745102	      1.47283887	     -3.77184119	     -5.33746253	      0.00000000	    -62.21571073	     -2.70276214	     -8.68685135	     52.65756691	     10.11628956	    -55.08546927	     41.92618710	     76.50311716	      0.00000000	      0.00000000	     65.69884804	     19.33814050	    -66.08724774	     48.18576251	     66.61924131	      0.00000000	      0.00000000
      0.18300000	      6.02170890	      6.08356786	      6.60273565	      0.05506021	      1.32113029	     -0.00289829	     27.76613006	    -16.30085707	    -11.91680831	     66.86592213	      1.16703050	    -15.34412475	    -15.19705219	      0.00000000	     55.77816823	     -5.43818597	     -4.99262972	     77.45272312	      1.35180503	     -4.50143764	     -5.60674142	      0.00000000	    -62.59445876	     -1.84897326	     -6.85523175	     53.05929356	     10.50728077	    -55.26144890	     42.16106538	     76.61380118	      0.00000000	      0.00000000	     65.71817042	     19.05873904	    -66.34930734	     48.35277350	     66.68175637	      0.00000000	      0.00000000
      0.20000000	      6.47523088	      4.34975954	      5.37096269	      0.05508737	      1.32167858	     -0.00295477	     31.11899861	    -14.82165009	    -10.85316086	     73.95195308	      1.29070507	    -15.39194315	    -15.62989992	      0.00000000	     51.65546331	     -6.96466111	     -5.15439113	     70.60224330	      1.23224160	     -5.53959112	     -5.95213870	      0.00000000	    -62.73969634	     -1.50252282	     -4.90729719	     53.42456162	     10.95246082	    -55.42637865	     42.40353851	     76.70337205	      0.00000000	      0.00000000	     65.67975287	     18.70512158	    -66.72760669	     48.43446395	     66.63866867	      0.00000000	      0.00000000
      0.21700000	      6.95744910	      2.71968700	      4.36367934	      0.05495260	      1.32225251	     -0.00313926	     34.70332229	    -13.74889325	    -10.28775984	     80.74201630	      1.40921403	    -15.60522260	    -16.41154937	      0.00000000	     47.03405183	     -8.24692238	     -5.70935359	     63.81554708	      1.11379141	     -7.53940420	     -6.22615690	      0.00000000	    -62.87785663	     -0.89128042	     -3.26664430	     53.71960376	     11.34878074	    -55.17659649	     42.52856003	     76.76945219	      0.00000000	      0.00000000	     65.51369928	     18.24978077	    -67.24565734	     48.58816338	     66.50846595	      0.00000000	      0.00000000
      0.23300000	      7.26846676	      1.22356849	      3.05341215	      0.05464085	      1.32239615	     -0.00303332	     39.02351766	    -12.73903017	     -9.56631341	     87.29392246	      1.52356636	    -16.34382769	    -17.63231387	      0.00000000	     42.02144100	     -9.61316439	     -7.06587062	     56.91872753	      0.99341920	    -10.19613493	     -6.46987997	      0.00000000	    -62.83532833	     -0.52212168	     -1.64622393	     54.00095746	     11.75825993	    -54.81528978	     42.63799773	     76.93991545	      0.00000000	      0.00000000	     65.23337656	     17.72418067	    -67.84811959	     48.70687999	     66.38442279	      0.00000000	      0.00000000
      0.25000000	      7.31230258	      0.00500147	      1.48867524	      0.05440431	      1.32199714	     -0.00244583	     43.66404071	    -11.56612743	     -8.51317161	     92.83909669	      1.62034791	    -17.28720477	    -19.06544410	      0.00000000	     37.23209305	    -10.87993881	     -8.87349019	     50.74414939	      0.88565248	    -12.54495519	     -6.44748185	      0.00000000	    -62.60260919	     -0.59190652	     -0.09949421	     54.14900272	     12.10346169	    -54.40554310	     42.73425991	     77.41995331	      0.00000000	      0.00000000	     64.88314080	     17.20658781	    -68.29596073	     48.72218587	     66.28960210	      0.00000000	      0.00000000
